<mxfile host="Electron" agent="Mozilla/5.0 (Windows NT 10.0; Win64; x64) AppleWebKit/537.36 (KHTML, like Gecko) draw.io/24.7.5 Chrome/126.0.6478.183 Electron/31.3.0 Safari/537.36" version="24.7.5">
  <diagram id="C5RBs43oDa-KdzZeNtuy" name="Page-1">
    <mxGraphModel dx="1020" dy="544" grid="1" gridSize="10" guides="1" tooltips="1" connect="1" arrows="1" fold="1" page="1" pageScale="1" pageWidth="827" pageHeight="1169" math="0" shadow="0">
      <root>
        <mxCell id="WIyWlLk6GJQsqaUBKTNV-0" />
        <mxCell id="WIyWlLk6GJQsqaUBKTNV-1" parent="WIyWlLk6GJQsqaUBKTNV-0" />
        <mxCell id="eoYMzKTAUGF3MjimPR_Q-30" value="" style="rounded=0;whiteSpace=wrap;html=1;" parent="WIyWlLk6GJQsqaUBKTNV-1" vertex="1">
          <mxGeometry x="60" y="140" width="490" height="240" as="geometry" />
        </mxCell>
        <mxCell id="eoYMzKTAUGF3MjimPR_Q-23" style="edgeStyle=orthogonalEdgeStyle;rounded=0;orthogonalLoop=1;jettySize=auto;html=1;exitX=1;exitY=0.5;exitDx=0;exitDy=0;entryX=0;entryY=0.5;entryDx=0;entryDy=0;" parent="WIyWlLk6GJQsqaUBKTNV-1" source="eoYMzKTAUGF3MjimPR_Q-1" target="eoYMzKTAUGF3MjimPR_Q-3" edge="1">
          <mxGeometry relative="1" as="geometry" />
        </mxCell>
        <mxCell id="eoYMzKTAUGF3MjimPR_Q-1" value="&lt;span style=&quot;background-color: initial;&quot;&gt;Windowing&lt;/span&gt;&lt;div&gt;&lt;span style=&quot;background-color: initial;&quot;&gt;(Hanning)&lt;/span&gt;&lt;/div&gt;" style="rounded=0;whiteSpace=wrap;html=1;" parent="WIyWlLk6GJQsqaUBKTNV-1" vertex="1">
          <mxGeometry x="290" y="160" width="90" height="60" as="geometry" />
        </mxCell>
        <mxCell id="eoYMzKTAUGF3MjimPR_Q-2" value="" style="html=1;verticalLabelPosition=bottom;align=center;labelBackgroundColor=#ffffff;verticalAlign=top;strokeWidth=2;strokeColor=#0080F0;shadow=0;dashed=0;shape=mxgraph.ios7.icons.microphone;" parent="WIyWlLk6GJQsqaUBKTNV-1" vertex="1">
          <mxGeometry x="30" y="175" width="20" height="30" as="geometry" />
        </mxCell>
        <mxCell id="Xg-kIFZUaCPv9lCPnRk3-1" style="edgeStyle=orthogonalEdgeStyle;rounded=0;orthogonalLoop=1;jettySize=auto;html=1;exitX=1;exitY=0.5;exitDx=0;exitDy=0;entryX=1;entryY=0.5;entryDx=0;entryDy=0;" edge="1" parent="WIyWlLk6GJQsqaUBKTNV-1" source="eoYMzKTAUGF3MjimPR_Q-3" target="eoYMzKTAUGF3MjimPR_Q-4">
          <mxGeometry relative="1" as="geometry" />
        </mxCell>
        <mxCell id="eoYMzKTAUGF3MjimPR_Q-3" value="Fast-Fourier Transform (FFT)" style="rounded=0;whiteSpace=wrap;html=1;" parent="WIyWlLk6GJQsqaUBKTNV-1" vertex="1">
          <mxGeometry x="400" y="160" width="100" height="60" as="geometry" />
        </mxCell>
        <mxCell id="Xg-kIFZUaCPv9lCPnRk3-2" style="edgeStyle=orthogonalEdgeStyle;rounded=0;orthogonalLoop=1;jettySize=auto;html=1;exitX=0;exitY=0.5;exitDx=0;exitDy=0;entryX=1;entryY=0.5;entryDx=0;entryDy=0;" edge="1" parent="WIyWlLk6GJQsqaUBKTNV-1" source="eoYMzKTAUGF3MjimPR_Q-4" target="eoYMzKTAUGF3MjimPR_Q-5">
          <mxGeometry relative="1" as="geometry" />
        </mxCell>
        <mxCell id="eoYMzKTAUGF3MjimPR_Q-4" value="Mel Filtering" style="rounded=0;whiteSpace=wrap;html=1;" parent="WIyWlLk6GJQsqaUBKTNV-1" vertex="1">
          <mxGeometry x="380" y="278.71" width="80" height="60" as="geometry" />
        </mxCell>
        <mxCell id="Xg-kIFZUaCPv9lCPnRk3-3" style="edgeStyle=orthogonalEdgeStyle;rounded=0;orthogonalLoop=1;jettySize=auto;html=1;exitX=0;exitY=0.5;exitDx=0;exitDy=0;entryX=1;entryY=0.5;entryDx=0;entryDy=0;" edge="1" parent="WIyWlLk6GJQsqaUBKTNV-1" source="eoYMzKTAUGF3MjimPR_Q-5" target="eoYMzKTAUGF3MjimPR_Q-20">
          <mxGeometry relative="1" as="geometry" />
        </mxCell>
        <mxCell id="eoYMzKTAUGF3MjimPR_Q-5" value="Log + DCT" style="rounded=0;whiteSpace=wrap;html=1;" parent="WIyWlLk6GJQsqaUBKTNV-1" vertex="1">
          <mxGeometry x="270" y="278.71" width="70" height="60" as="geometry" />
        </mxCell>
        <mxCell id="eoYMzKTAUGF3MjimPR_Q-21" value="" style="group" parent="WIyWlLk6GJQsqaUBKTNV-1" vertex="1" connectable="0">
          <mxGeometry x="90" y="259.71" width="90" height="100" as="geometry" />
        </mxCell>
        <mxCell id="Xg-kIFZUaCPv9lCPnRk3-8" style="edgeStyle=orthogonalEdgeStyle;rounded=0;orthogonalLoop=1;jettySize=auto;html=1;exitX=0;exitY=0.5;exitDx=0;exitDy=0;" edge="1" parent="eoYMzKTAUGF3MjimPR_Q-21" source="eoYMzKTAUGF3MjimPR_Q-20">
          <mxGeometry relative="1" as="geometry">
            <mxPoint x="-50" y="49.29000000000002" as="targetPoint" />
          </mxGeometry>
        </mxCell>
        <mxCell id="eoYMzKTAUGF3MjimPR_Q-20" value="" style="rounded=0;whiteSpace=wrap;html=1;" parent="eoYMzKTAUGF3MjimPR_Q-21" vertex="1">
          <mxGeometry y="-1" width="90" height="100" as="geometry" />
        </mxCell>
        <mxCell id="eoYMzKTAUGF3MjimPR_Q-6" value="" style="ellipse;whiteSpace=wrap;html=1;aspect=fixed;" parent="eoYMzKTAUGF3MjimPR_Q-21" vertex="1">
          <mxGeometry x="6" y="10" width="20" height="20" as="geometry" />
        </mxCell>
        <mxCell id="eoYMzKTAUGF3MjimPR_Q-8" value="" style="ellipse;whiteSpace=wrap;html=1;aspect=fixed;" parent="eoYMzKTAUGF3MjimPR_Q-21" vertex="1">
          <mxGeometry x="6" y="40" width="20" height="20" as="geometry" />
        </mxCell>
        <mxCell id="eoYMzKTAUGF3MjimPR_Q-9" value="" style="ellipse;whiteSpace=wrap;html=1;aspect=fixed;" parent="eoYMzKTAUGF3MjimPR_Q-21" vertex="1">
          <mxGeometry x="6" y="70" width="20" height="20" as="geometry" />
        </mxCell>
        <mxCell id="eoYMzKTAUGF3MjimPR_Q-10" value="" style="ellipse;whiteSpace=wrap;html=1;aspect=fixed;" parent="eoYMzKTAUGF3MjimPR_Q-21" vertex="1">
          <mxGeometry x="56" y="20" width="20" height="20" as="geometry" />
        </mxCell>
        <mxCell id="eoYMzKTAUGF3MjimPR_Q-11" value="" style="ellipse;whiteSpace=wrap;html=1;aspect=fixed;" parent="eoYMzKTAUGF3MjimPR_Q-21" vertex="1">
          <mxGeometry x="56" y="50" width="20" height="20" as="geometry" />
        </mxCell>
        <mxCell id="eoYMzKTAUGF3MjimPR_Q-13" value="" style="endArrow=classic;html=1;rounded=0;exitX=1;exitY=0.5;exitDx=0;exitDy=0;entryX=0;entryY=0.5;entryDx=0;entryDy=0;" parent="eoYMzKTAUGF3MjimPR_Q-21" source="eoYMzKTAUGF3MjimPR_Q-6" target="eoYMzKTAUGF3MjimPR_Q-10" edge="1">
          <mxGeometry width="50" height="50" relative="1" as="geometry">
            <mxPoint x="36" y="-60" as="sourcePoint" />
            <mxPoint x="86" y="-110" as="targetPoint" />
          </mxGeometry>
        </mxCell>
        <mxCell id="eoYMzKTAUGF3MjimPR_Q-14" value="" style="endArrow=classic;html=1;rounded=0;exitX=1;exitY=0.5;exitDx=0;exitDy=0;entryX=0;entryY=0.5;entryDx=0;entryDy=0;" parent="eoYMzKTAUGF3MjimPR_Q-21" source="eoYMzKTAUGF3MjimPR_Q-6" target="eoYMzKTAUGF3MjimPR_Q-11" edge="1">
          <mxGeometry width="50" height="50" relative="1" as="geometry">
            <mxPoint x="36" y="-60" as="sourcePoint" />
            <mxPoint x="86" y="-110" as="targetPoint" />
          </mxGeometry>
        </mxCell>
        <mxCell id="eoYMzKTAUGF3MjimPR_Q-15" value="" style="endArrow=classic;html=1;rounded=0;exitX=1;exitY=0.5;exitDx=0;exitDy=0;entryX=0;entryY=0.5;entryDx=0;entryDy=0;" parent="eoYMzKTAUGF3MjimPR_Q-21" source="eoYMzKTAUGF3MjimPR_Q-8" target="eoYMzKTAUGF3MjimPR_Q-10" edge="1">
          <mxGeometry width="50" height="50" relative="1" as="geometry">
            <mxPoint x="36" y="-60" as="sourcePoint" />
            <mxPoint x="86" y="-110" as="targetPoint" />
          </mxGeometry>
        </mxCell>
        <mxCell id="eoYMzKTAUGF3MjimPR_Q-16" value="" style="endArrow=classic;html=1;rounded=0;exitX=1;exitY=0.5;exitDx=0;exitDy=0;entryX=0;entryY=0.5;entryDx=0;entryDy=0;" parent="eoYMzKTAUGF3MjimPR_Q-21" source="eoYMzKTAUGF3MjimPR_Q-8" target="eoYMzKTAUGF3MjimPR_Q-11" edge="1">
          <mxGeometry width="50" height="50" relative="1" as="geometry">
            <mxPoint x="36" y="-60" as="sourcePoint" />
            <mxPoint x="86" y="-110" as="targetPoint" />
          </mxGeometry>
        </mxCell>
        <mxCell id="eoYMzKTAUGF3MjimPR_Q-18" value="" style="endArrow=classic;html=1;rounded=0;exitX=1;exitY=0.5;exitDx=0;exitDy=0;" parent="eoYMzKTAUGF3MjimPR_Q-21" source="eoYMzKTAUGF3MjimPR_Q-9" edge="1">
          <mxGeometry width="50" height="50" relative="1" as="geometry">
            <mxPoint x="36" y="-60" as="sourcePoint" />
            <mxPoint x="56" y="40" as="targetPoint" />
          </mxGeometry>
        </mxCell>
        <mxCell id="eoYMzKTAUGF3MjimPR_Q-19" value="" style="endArrow=classic;html=1;rounded=0;exitX=1;exitY=0.5;exitDx=0;exitDy=0;entryX=0;entryY=1;entryDx=0;entryDy=0;" parent="eoYMzKTAUGF3MjimPR_Q-21" source="eoYMzKTAUGF3MjimPR_Q-9" target="eoYMzKTAUGF3MjimPR_Q-11" edge="1">
          <mxGeometry width="50" height="50" relative="1" as="geometry">
            <mxPoint x="36" y="-60" as="sourcePoint" />
            <mxPoint x="86" y="-110" as="targetPoint" />
          </mxGeometry>
        </mxCell>
        <mxCell id="eoYMzKTAUGF3MjimPR_Q-22" value="" style="endArrow=classic;html=1;rounded=0;exitX=0.967;exitY=0.522;exitDx=0;exitDy=0;exitPerimeter=0;entryX=0;entryY=0.5;entryDx=0;entryDy=0;" parent="WIyWlLk6GJQsqaUBKTNV-1" source="eoYMzKTAUGF3MjimPR_Q-2" target="zQZU54eB6tLAeW39PDsI-2" edge="1">
          <mxGeometry width="50" height="50" relative="1" as="geometry">
            <mxPoint x="400" y="290" as="sourcePoint" />
            <mxPoint x="60" y="190" as="targetPoint" />
          </mxGeometry>
        </mxCell>
        <mxCell id="eoYMzKTAUGF3MjimPR_Q-32" value="Classifier" style="text;strokeColor=none;align=center;fillColor=none;html=1;verticalAlign=middle;whiteSpace=wrap;rounded=0;" parent="WIyWlLk6GJQsqaUBKTNV-1" vertex="1">
          <mxGeometry x="110" y="240" width="60" height="30" as="geometry" />
        </mxCell>
        <mxCell id="eoYMzKTAUGF3MjimPR_Q-33" value="MFCC Processing" style="text;strokeColor=none;align=center;fillColor=none;html=1;verticalAlign=middle;whiteSpace=wrap;rounded=0;" parent="WIyWlLk6GJQsqaUBKTNV-1" vertex="1">
          <mxGeometry x="416" y="351.28999999999996" width="134" height="28.71" as="geometry" />
        </mxCell>
        <mxCell id="zQZU54eB6tLAeW39PDsI-3" value="" style="edgeStyle=orthogonalEdgeStyle;rounded=0;orthogonalLoop=1;jettySize=auto;html=1;" parent="WIyWlLk6GJQsqaUBKTNV-1" source="zQZU54eB6tLAeW39PDsI-0" target="eoYMzKTAUGF3MjimPR_Q-1" edge="1">
          <mxGeometry relative="1" as="geometry" />
        </mxCell>
        <mxCell id="zQZU54eB6tLAeW39PDsI-0" value="Pre-empahsis&amp;nbsp;&lt;br&gt;&lt;div&gt;(HPF)&lt;/div&gt;" style="rounded=0;whiteSpace=wrap;html=1;" parent="WIyWlLk6GJQsqaUBKTNV-1" vertex="1">
          <mxGeometry x="190" y="160" width="80" height="60" as="geometry" />
        </mxCell>
        <mxCell id="zQZU54eB6tLAeW39PDsI-4" style="edgeStyle=orthogonalEdgeStyle;rounded=0;orthogonalLoop=1;jettySize=auto;html=1;exitX=1;exitY=0.5;exitDx=0;exitDy=0;entryX=0;entryY=0.5;entryDx=0;entryDy=0;" parent="WIyWlLk6GJQsqaUBKTNV-1" source="zQZU54eB6tLAeW39PDsI-2" target="zQZU54eB6tLAeW39PDsI-0" edge="1">
          <mxGeometry relative="1" as="geometry" />
        </mxCell>
        <mxCell id="zQZU54eB6tLAeW39PDsI-2" value="Deserializer" style="rounded=0;whiteSpace=wrap;html=1;" parent="WIyWlLk6GJQsqaUBKTNV-1" vertex="1">
          <mxGeometry x="100" y="160" width="70" height="60" as="geometry" />
        </mxCell>
        <mxCell id="zQZU54eB6tLAeW39PDsI-7" value="I2S" style="text;strokeColor=none;align=center;fillColor=none;html=1;verticalAlign=middle;whiteSpace=wrap;rounded=0;" parent="WIyWlLk6GJQsqaUBKTNV-1" vertex="1">
          <mxGeometry x="50" y="170" width="50" height="30" as="geometry" />
        </mxCell>
        <mxCell id="zQZU54eB6tLAeW39PDsI-10" value="(CNN/RNN)" style="text;strokeColor=none;align=center;fillColor=none;html=1;verticalAlign=middle;whiteSpace=wrap;rounded=0;" parent="WIyWlLk6GJQsqaUBKTNV-1" vertex="1">
          <mxGeometry x="110" y="338.71000000000004" width="80" height="30" as="geometry" />
        </mxCell>
        <mxCell id="zQZU54eB6tLAeW39PDsI-8" value="MFCC&amp;nbsp;&lt;div&gt;Coefficients&lt;/div&gt;" style="text;strokeColor=none;align=center;fillColor=none;html=1;verticalAlign=middle;whiteSpace=wrap;rounded=0;" parent="WIyWlLk6GJQsqaUBKTNV-1" vertex="1">
          <mxGeometry x="160" y="278.71" width="140" height="21.29" as="geometry" />
        </mxCell>
      </root>
    </mxGraphModel>
  </diagram>
</mxfile>
